<svg xmlns="http://www.w3.org/2000/svg" viewBox="0 0 1200 900" preserveAspectRatio="xMidYMid slice">
  <defs>
    <linearGradient id="sky-c" x1="0" y1="0" x2="0" y2="1">
      <stop offset="0" stop-color="#B87333" stop-opacity="0.4"/>
      <stop offset="0.5" stop-color="#D8D4C8"/>
      <stop offset="1" stop-color="#F5F1E8"/>
    </linearGradient>
    <linearGradient id="lawn-c" x1="0" y1="0" x2="0" y2="1">
      <stop offset="0" stop-color="#5C7A5E"/>
      <stop offset="1" stop-color="#0F1B14"/>
    </linearGradient>
    <radialGradient id="sun-c" cx="0.7" cy="0.2" r="0.4">
      <stop offset="0" stop-color="#B87333" stop-opacity="0.6"/>
      <stop offset="1" stop-color="#B87333" stop-opacity="0"/>
    </radialGradient>
  </defs>
  <rect width="1200" height="500" fill="url(#sky-c)"/>
  <rect width="1200" height="500" fill="url(#sun-c)"/>
  <rect y="500" width="1200" height="400" fill="url(#lawn-c)"/>
  <g opacity="0.7">
    <rect x="80" y="270" width="180" height="230" fill="#0F1B14"/>
    <rect x="320" y="320" width="240" height="180" fill="#1F2A22"/>
    <rect x="620" y="290" width="200" height="210" fill="#0F1B14"/>
    <rect x="880" y="340" width="240" height="160" fill="#1F2A22"/>
  </g>
  <g stroke="#3DA9FC" stroke-width="1" stroke-dasharray="4 6" fill="none" opacity="0.55">
    <circle cx="300" cy="640" r="50"/>
    <circle cx="500" cy="700" r="60"/>
    <circle cx="720" cy="640" r="55"/>
    <circle cx="940" cy="700" r="65"/>
  </g>
  <g fill="#F5F1E8" opacity="0.85">
    <circle cx="300" cy="640" r="3"/>
    <circle cx="500" cy="700" r="3"/>
    <circle cx="720" cy="640" r="3"/>
    <circle cx="940" cy="700" r="3"/>
  </g>
  <text x="60" y="80" font-family="monospace" font-size="12" letter-spacing="3" fill="#0F1B14" opacity="0.6">SYSTEM II · CORTILE</text>
  <text x="60" y="840" font-family="Georgia, serif" font-style="italic" font-size="34" fill="#F5F1E8" opacity="0.9">Der Bestseller.</text>
</svg>
