<svg xmlns="http://www.w3.org/2000/svg" viewBox="0 0 1200 900" preserveAspectRatio="xMidYMid slice">
  <defs>
    <linearGradient id="sky-s" x1="0" y1="0" x2="0" y2="1">
      <stop offset="0" stop-color="#D8D4C8"/>
      <stop offset="1" stop-color="#F5F1E8"/>
    </linearGradient>
    <linearGradient id="lawn-s" x1="0" y1="0" x2="0" y2="1">
      <stop offset="0" stop-color="#5C7A5E"/>
      <stop offset="1" stop-color="#1F2A22"/>
    </linearGradient>
  </defs>
  <rect width="1200" height="540" fill="url(#sky-s)"/>
  <rect y="540" width="1200" height="360" fill="url(#lawn-s)"/>
  <g fill="#0F1B14" opacity="0.85">
    <rect x="100" y="380" width="240" height="160"/>
    <polygon points="100,380 220,300 340,380"/>
    <rect x="180" y="430" width="40" height="110" fill="#F5F1E8" opacity="0.4"/>
  </g>
  <g fill="#A8E063" opacity="0.45">
    <circle cx="500" cy="600" r="4"/>
    <circle cx="540" cy="630" r="3"/>
    <circle cx="620" cy="600" r="5"/>
    <circle cx="700" cy="640" r="3"/>
    <circle cx="780" cy="620" r="4"/>
    <circle cx="860" cy="660" r="3"/>
    <circle cx="940" cy="620" r="4"/>
    <circle cx="1020" cy="650" r="3"/>
  </g>
  <g stroke="#3DA9FC" stroke-width="0.8" fill="none" opacity="0.4">
    <path d="M500 800 Q600 760 700 800 T900 800"/>
  </g>
  <text x="60" y="80" font-family="monospace" font-size="12" letter-spacing="3" fill="#0F1B14" opacity="0.6">SYSTEM I · SERENO</text>
  <text x="60" y="840" font-family="Georgia, serif" font-style="italic" font-size="34" fill="#F5F1E8" opacity="0.85">Für kleine Gärten.</text>
</svg>
