<svg xmlns="http://www.w3.org/2000/svg" viewBox="0 0 800 1000" preserveAspectRatio="xMidYMid slice">
  <defs>
    <linearGradient id="bg" x1="0" y1="0" x2="0" y2="1">
      <stop offset="0" stop-color="#1F2A22"/>
      <stop offset="1" stop-color="#0F1B14"/>
    </linearGradient>
    <radialGradient id="glow" cx="0.5" cy="0.35" r="0.7">
      <stop offset="0" stop-color="#3DA9FC" stop-opacity="0.18"/>
      <stop offset="1" stop-color="#3DA9FC" stop-opacity="0"/>
    </radialGradient>
  </defs>
  <rect width="800" height="1000" fill="url(#bg)"/>
  <rect width="800" height="1000" fill="url(#glow)"/>
  <g stroke="#5C7A5E" stroke-width="0.5" opacity="0.25" fill="none">
    <path d="M0 700 Q200 660 400 700 T800 700"/>
    <path d="M0 740 Q200 700 400 740 T800 740"/>
    <path d="M0 780 Q200 740 400 780 T800 780"/>
  </g>
  <g fill="#F5F1E8" opacity="0.95">
    <circle cx="220" cy="350" r="5"/>
    <ellipse cx="220" cy="362" rx="3.5" ry="9" opacity="0.45"/>
    <circle cx="330" cy="420" r="9"/>
    <ellipse cx="330" cy="438" rx="6" ry="14" opacity="0.45"/>
    <circle cx="450" cy="320" r="6"/>
    <ellipse cx="450" cy="334" rx="4" ry="10" opacity="0.45"/>
    <circle cx="560" cy="420" r="11"/>
    <ellipse cx="560" cy="440" rx="7" ry="16" opacity="0.45"/>
    <circle cx="640" cy="370" r="4"/>
    <ellipse cx="640" cy="380" rx="3" ry="7" opacity="0.45"/>
    <circle cx="150" cy="450" r="7"/>
    <ellipse cx="150" cy="464" rx="5" ry="11" opacity="0.45"/>
  </g>
  <g stroke="#A8E063" stroke-width="1.5" fill="none" opacity="0.85">
    <path d="M380 540 L380 580" stroke-linecap="round"/>
    <circle cx="380" cy="540" r="40" stroke-dasharray="2 6"/>
    <circle cx="380" cy="540" r="80" stroke-dasharray="2 8" opacity="0.5"/>
    <circle cx="380" cy="540" r="120" stroke-dasharray="2 10" opacity="0.3"/>
  </g>
  <text x="60" y="120" font-family="monospace" font-size="11" letter-spacing="3" fill="#F5F1E8" opacity="0.85">I · BEWÄSSERUNG</text>
</svg>
