<svg xmlns="http://www.w3.org/2000/svg" viewBox="0 0 600 600" preserveAspectRatio="xMidYMid slice">
  <defs>
    <linearGradient id="pw" x1="0" y1="0" x2="0" y2="1">
      <stop offset="0" stop-color="#3DA9FC" stop-opacity="0.35"/>
      <stop offset="1" stop-color="#3DA9FC" stop-opacity="0.10"/>
    </linearGradient>
  </defs>
  <rect width="600" height="600" fill="#F5F1E8"/>
  <rect x="60" y="150" width="480" height="330" fill="url(#pw)" stroke="#0F1B14" stroke-width="1" stroke-opacity="0.35"/>
  <g stroke="#0F1B14" stroke-width="0.4" stroke-opacity="0.18">
    <path d="M60 250 H540 M60 350 H540 M60 450 H540"/>
    <path d="M180 150 V480 M300 150 V480 M420 150 V480"/>
  </g>
  <g stroke="#0F1B14" stroke-width="1.4" stroke-linecap="round" stroke-opacity="0.45" fill="none">
    <path d="M110 230 q34 -12 68 0 t68 0"/>
    <path d="M320 300 q34 -12 68 0 t68 0"/>
    <path d="M140 400 q34 -12 68 0 t68 0"/>
  </g>
  <g transform="translate(300 380)">
    <ellipse cy="20" rx="66" ry="11" fill="#0F1B14" opacity="0.22"/>
    <rect x="-56" y="-32" width="112" height="50" rx="16" fill="#0F1B14"/>
    <rect x="-38" y="-22" width="76" height="18" rx="7" fill="#1F2A22"/>
    <circle cx="-30" cy="20" r="10" fill="#0A0F0C"/>
    <circle cx="30" cy="20" r="10" fill="#0A0F0C"/>
    <circle cx="0" cy="-6" r="6" fill="#3DA9FC"/>
  </g>
  <text x="40" y="560" font-family="monospace" font-size="11" letter-spacing="3" fill="#0F1B14" opacity="0.55">POOL · VI</text>
</svg>
